<svg xmlns="http://www.w3.org/2000/svg" width="14.93" height="14.958" viewBox="0 0 14.93 14.958">
  <g id="Group_201" data-name="Group 201" transform="translate(0 0)">
    <path id="Path_153" data-name="Path 153" d="M-757.351,302.958c1.265,0,2.544-.012,3.853-.025a5.622,5.622,0,0,0,2.041-.331,3.881,3.881,0,0,0,1.621-1.138,4.116,4.116,0,0,0,.824-1.8,6.309,6.309,0,0,0,.089-.668c.01-.105.021-.214.034-.322.006-.047.012-.094.018-.141l.008-.056v-6.1c-.009-.082-.017-.165-.026-.245-.018-.176-.036-.359-.063-.535a4.361,4.361,0,0,0-.723-1.887,3.8,3.8,0,0,0-1.571-1.256,4.876,4.876,0,0,0-1.756-.39l-.733-.041-.328-.018H-758.6l-.34.018c-.246.012-.5.025-.75.043a4.443,4.443,0,0,0-2.459.823,3.73,3.73,0,0,0-1.493,2.521,14.753,14.753,0,0,0-.147,2.053c-.013,1.592,0,3.212.021,4.779l0,.147a5.263,5.263,0,0,0,.443,2.247,3.807,3.807,0,0,0,1.077,1.383,4.1,4.1,0,0,0,1.592.749,10.057,10.057,0,0,0,2.32.193h.014Zm-2.245-1.181a3.338,3.338,0,0,1-1.685-.469,2.643,2.643,0,0,1-1.263-2.07c-.086-.894-.106-1.81-.115-2.588-.013-1.159-.006-2.355.022-3.656a8.415,8.415,0,0,1,.148-1.538,2.652,2.652,0,0,1,2.274-2.176,12.345,12.345,0,0,1,2.119-.127h.181c.49,0,1.044,0,1.589,0,.937,0,1.7.005,2.406.017a9.128,9.128,0,0,1,1.613.146,2.655,2.655,0,0,1,2.217,2.389,15.491,15.491,0,0,1,.112,1.864c.01,1.622,0,3.123-.023,4.59a6.573,6.573,0,0,1-.168,1.481,2.586,2.586,0,0,1-2.35,2.071,19.13,19.13,0,0,1-1.918.11c-.22.005-.447.01-.669.018-.136,0-.281.007-.456.007l-.376,0-.258,0v.026l-.119,0-.962-.022C-758.037,301.821-758.823,301.8-759.6,301.776Z" transform="translate(763.794 -288)" fill="#fff"/>
    <path id="Path_154" data-name="Path 154" d="M-640.093,413.943a3.755,3.755,0,0,0,1.109,2.677,3.769,3.769,0,0,0,2.679,1.113h0a3.749,3.749,0,0,0,2.666-1.1,3.788,3.788,0,0,0,1.115-2.673,3.736,3.736,0,0,0-1.09-2.668,3.779,3.779,0,0,0-2.688-1.127h-.015v-.06h0v.06A3.788,3.788,0,0,0-640.093,413.943Zm3.786-2.646a2.635,2.635,0,0,1,1.881.778,2.633,2.633,0,0,1,.77,1.882,2.655,2.655,0,0,1-2.651,2.639h-.006a2.652,2.652,0,0,1-2.643-2.653A2.654,2.654,0,0,1-636.307,411.3Z" transform="translate(643.781 -406.462)" fill="#fff"/>
    <path id="Path_155" data-name="Path 155" d="M-402.589,376.4h-.015a.8.8,0,0,0-.556.223.771.771,0,0,0-.237.542.8.8,0,0,0,.225.576.776.776,0,0,0,.55.239h.012a.786.786,0,0,0,.793-.768.792.792,0,0,0-.218-.573A.781.781,0,0,0-402.589,376.4Z" transform="translate(414.14 -373.766)" fill="#fff"/>
  </g>
</svg>
